# xmcd
#
# Track frame offsets:
#	150
#	1432
#	18688
#	30476
#	32792
#	60961
#	63892
#	68158
#	83136
#	114933
#	142868
#	205124
#
# Disc length: 2747 seconds
# Revision: 0
# Processed by: cddbd v1.5.2PL0 Copyright (c) Steve Scherf et al.
# Submitted via: dBpowerAMP V12.0
#
DISCID=900ab90c
DTITLE=Hale Dwoskin - The Inner Circle Retreat 01 CD 08
DYEAR=2006
DGENRE=Speech
TTITLE0=Intro Music
TTITLE1=Anger Issues
TTITLE2=Release on Loved Ones
TTITLE3=Summary of Release
TTITLE4=Release on Wanting to Control
TTITLE5=Assignments
TTITLE6=Sharing
TTITLE7=Anxiety
TTITLE8=Release on Your Drama
TTITLE9=Graduate Gain
TTITLE10=Release on Being Loving
TTITLE11=Concluding Music
EXTD=
EXTT0=
EXTT1=
EXTT2=
EXTT3=
EXTT4=
EXTT5=
EXTT6=
EXTT7=
EXTT8=
EXTT9=
EXTT10=
EXTT11=
PLAYORDER=
